<?xml version="1.0" encoding="UTF-8"?>
<svg width="26px" height="26px" viewBox="0 0 26 26" version="1.1" xmlns="http://www.w3.org/2000/svg" xmlns:xlink="http://www.w3.org/1999/xlink">
    <!-- Generator: Sketch 52.6 (67491) - http://www.bohemiancoding.com/sketch -->
    <title>content_ic_increase</title>
    <desc>Created with Sketch.</desc>
    <defs>
        <path d="M6.0787037,10.2314815 L6.0787037,8.15509259 C6.0787037,6.97847222 6.97847222,6.0787037 8.15509259,6.0787037 L10.2314815,6.0787037 C10.6467593,6.0787037 10.9236111,5.80185185 10.9236111,5.38657407 C10.9236111,4.9712963 10.6467593,4.69444444 10.2314815,4.69444444 L8.15509259,4.69444444 C6.21712963,4.69444444 4.69444444,6.21712963 4.69444444,8.15509259 L4.69444444,10.2314815 C4.69444444,10.6467593 4.9712963,10.9236111 5.38657407,10.9236111 C5.80185185,10.9236111 6.0787037,10.6467593 6.0787037,10.2314815 Z M4.69444444,15.7685185 L4.69444444,17.8449074 C4.69444444,19.7828704 6.21712963,21.3055556 8.15509259,21.3055556 L10.2314815,21.3055556 C10.6467593,21.3055556 10.9236111,21.0287037 10.9236111,20.6134259 C10.9236111,20.1981481 10.6467593,19.9212963 10.2314815,19.9212963 L8.15509259,19.9212963 C6.97847222,19.9212963 6.0787037,19.0215278 6.0787037,17.8449074 L6.0787037,15.7685185 C6.0787037,15.3532407 5.80185185,15.0763889 5.38657407,15.0763889 C4.9712963,15.0763889 4.69444444,15.3532407 4.69444444,15.7685185 Z M21.3055556,10.2314815 L21.3055556,8.15509259 C21.3055556,6.21712963 19.7828704,4.69444444 17.8449074,4.69444444 L15.7685185,4.69444444 C15.3532407,4.69444444 15.0763889,4.9712963 15.0763889,5.38657407 C15.0763889,5.80185185 15.3532407,6.0787037 15.7685185,6.0787037 L17.8449074,6.0787037 C19.0215278,6.0787037 19.9212963,6.97847222 19.9212963,8.15509259 L19.9212963,10.2314815 C19.9212963,10.6467593 20.1981481,10.9236111 20.6134259,10.9236111 C21.0287037,10.9236111 21.3055556,10.6467593 21.3055556,10.2314815 Z M19.9212963,15.7685185 L19.9212963,17.8449074 C19.9212963,19.0215278 19.0215278,19.9212963 17.8449074,19.9212963 L15.7685185,19.9212963 C15.3532407,19.9212963 15.0763889,20.1981481 15.0763889,20.6134259 C15.0763889,21.0287037 15.3532407,21.3055556 15.7685185,21.3055556 L17.8449074,21.3055556 C19.7828704,21.3055556 21.3055556,19.7828704 21.3055556,17.8449074 L21.3055556,15.7685185 C21.3055556,15.3532407 21.0287037,15.0763889 20.6134259,15.0763889 C20.1981481,15.0763889 19.9212963,15.3532407 19.9212963,15.7685185 Z" id="path-1"></path>
        <filter x="-31.6%" y="-25.6%" width="163.2%" height="163.2%" filterUnits="objectBoundingBox" id="filter-2">
            <feMorphology radius="0.25" operator="dilate" in="SourceAlpha" result="shadowSpreadOuter1"></feMorphology>
            <feOffset dx="0" dy="1" in="shadowSpreadOuter1" result="shadowOffsetOuter1"></feOffset>
            <feGaussianBlur stdDeviation="1.5" in="shadowOffsetOuter1" result="shadowBlurOuter1"></feGaussianBlur>
            <feComposite in="shadowBlurOuter1" in2="SourceAlpha" operator="out" result="shadowBlurOuter1"></feComposite>
            <feColorMatrix values="0 0 0 0 0   0 0 0 0 0.0498333333   0 0 0 0 0.13  0 0 0 0.1 0" type="matrix" in="shadowBlurOuter1"></feColorMatrix>
        </filter>
    </defs>
    <g id="切图" stroke="none" stroke-width="1" fill="none" fill-rule="evenodd">
        <g id="06---应用详情页" transform="translate(-48.000000, -27.000000)">
            <g id="Group-13" transform="translate(48.000000, 27.000000)">
                <g id="Shape-Copy-5" fill-rule="nonzero">
                    <use fill="black" fill-opacity="1" filter="url(#filter-2)" xlink:href="#path-1"></use>
                    <use stroke="#FFFFFF" stroke-width="0.5" fill="#FFFFFF" xlink:href="#path-1"></use>
                </g>
                <rect id="content_ic_increase" x="0" y="0" width="26" height="26"></rect>
            </g>
        </g>
    </g>
</svg>