<?xml version="1.0" encoding="UTF-8"?>
<svg width="58px" height="58px" viewBox="0 0 58 58" version="1.1" xmlns="http://www.w3.org/2000/svg" xmlns:xlink="http://www.w3.org/1999/xlink">
    <!-- Generator: Sketch 52.6 (67491) - http://www.bohemiancoding.com/sketch -->
    <title>content_btn_play</title>
    <desc>Created with Sketch.</desc>
    <g id="切图" stroke="none" stroke-width="1" fill="none" fill-rule="evenodd">
        <g id="06---应用详情页" transform="translate(-278.000000, -40.000000)">
            <g id="分组-17" transform="translate(278.000000, 40.000000)">
                <g id="分组-16">
                    <circle id="Oval" fill-opacity="0.3" fill="#0F1011" cx="29" cy="29" r="29"></circle>
                    <path d="M39.4767759,27.3997766 L39.4773624,27.3992271 L24.2246398,17.5994054 L24.2198748,17.6036182 C23.9038463,17.322436 23.4751196,17.1493902 23.002604,17.1493902 C22.03062,17.1493902 21.2427111,17.8803358 21.2427111,18.7826328 C21.2427111,19.2781875 21.2199125,20.248439 21.2427111,20.2273979 L21.2427111,28.5824544 L21.2427111,37.3771315 C21.2427111,37.3844124 21.2427111,37.9420603 21.2427111,38.382528 C21.2427111,39.2842755 22.03062,40.0152439 23.002604,40.0152439 C23.4769034,40.0152439 23.9074383,39.8410762 24.2234425,39.5573297 L24.2246398,39.5579021 L39.4773624,29.7583781 L39.476776,29.7575081 C39.8083702,29.4605965 40.0152439,29.0440091 40.0152439,28.5821568 C40.0152439,28.5810349 40.0152439,28.5801878 40.0152439,28.5787911 C40.0152439,28.5776692 40.0152439,28.5762955 40.0152439,28.5754483 C40.0152439,28.1135503 39.8083702,27.6966653 39.4767759,27.3997766 Z" id="Shape-Copy-3" fill="#FFFFFF" fill-rule="nonzero"></path>
                </g>
                <rect id="content_btn_play" fill-rule="nonzero" x="0" y="0" width="58" height="58"></rect>
            </g>
        </g>
    </g>
</svg>