<?xml version="1.0" encoding="UTF-8"?>
<svg width="18px" height="18px" viewBox="0 0 18 18" version="1.1" xmlns="http://www.w3.org/2000/svg" xmlns:xlink="http://www.w3.org/1999/xlink">
    <!-- Generator: Sketch 52.6 (67491) - http://www.bohemiancoding.com/sketch -->
    <title>content_ic_tutu</title>
    <desc>Created with Sketch.</desc>
    <g id="切图" stroke="none" stroke-width="1" fill="none" fill-rule="evenodd">
        <g id="06---应用详情页" transform="translate(-89.000000, -35.000000)" fill-rule="nonzero">
            <g id="分组-13" transform="translate(89.000000, 35.000000)">
                <path d="M7.24001907,8.64413648 C6.79748755,8.37677876 6.11392604,8.15820397 5.19404447,7.98620158 C4.92758069,8.12057447 4.70799063,8.27742456 4.5547065,8.41084337 C4.1962487,8.88751369 3.61873336,9.18660095 2.98147505,9.18660095 C1.89614449,9.19594743 1,8.29868565 1,7.18645491 C1,6.28919314 1.5874725,5.53212851 2.39400255,5.27042716 C2.6628459,5.16761592 2.97151789,5.07415115 3.33993285,5.00872581 C5.53050828,4.62552026 7.34271159,5.51343556 8.77654278,7.68181818 C9.25448651,7.48554217 9.76230173,7.34534502 10.2601598,7.25188025 C9.80213037,5.9807594 8.58735672,4.94330047 6.59592451,4.12081051 C6.57601019,4.11146404 6.54613871,4.10211756 6.52622438,4.09277108 C5.87900892,3.8030303 5.48072247,3.23289522 5.48072247,2.50387003 C5.48072247,1.51314348 6.33703832,0.7 7.39249739,0.7 C9.8718305,0.72803943 11.6442052,2.8777291 12.7594072,7.13972253 C13.2174366,7.17710843 13.6256802,7.23318729 13.9542665,7.30795911 C15.159083,7.56966046 16.085099,8.45757576 16.7323145,9.98105148 C17.4094014,12.3270172 16.8020146,13.8785323 14.910154,14.6355969 C15.2298801,15.9200975 15.6942186,17.7666667 15.6942186,17.7666667 C15.6942186,17.7666667 9.52332986,17.7666667 9.52332986,17.7666667 C8.88607155,17.7666667 8.47782795,17.7199343 7.57172629,17.420847 C7.27301146,17.3367287 7.05395392,17.2152245 6.91455366,17.0656809 C6.78511057,16.9628697 6.69549612,16.7946331 6.69549612,16.61705 C6.69549612,16.2992698 6.97429663,16.0375685 7.31284011,16.0375685 C7.42236888,16.0375685 7.50202617,16.0375685 7.59164062,16.0562614 C7.91026977,16.1216867 8.41808498,16.1310332 9.11508626,16.0936473 C9.08521477,15.9627966 9.05534329,15.8412924 9.02547181,15.7104418 C7.84056964,15.4767798 6.97429663,15.1216137 6.43660993,14.6542899 C5.20192196,13.5327127 5.142179,11.9531581 6.25738104,9.89693319 C6.52836162,9.40061899 6.86076097,8.98666463 7.24001907,8.64413648 Z" id="Combined-Shape-Copy-2" stroke="#162B48" stroke-width="0.5" fill="#FFFFFF" stroke-linecap="round" stroke-linejoin="round"></path>
                <rect id="content_ic_tutu" x="0" y="0" width="18" height="18"></rect>
            </g>
        </g>
    </g>
</svg>